<?xml version="1.0" encoding="UTF-8"?>
<svg version="1.1" xmlns="http://www.w3.org/2000/svg" width="197" height="166">
<path d="M0 0 C1.33691406 2.35058594 1.33691406 2.35058594 2.515625 5.484375 C2.96292969 6.6496875 3.41023438 7.815 3.87109375 9.015625 C4.32613281 10.24796875 4.78117188 11.4803125 5.25 12.75 C5.90935547 14.4825 5.90935547 14.4825 6.58203125 16.25 C7.51921737 18.71712244 8.45030732 21.18572039 9.37304688 23.65820312 C11.34408063 28.93245646 13.35283946 34.19229885 15.359375 39.453125 C15.71847961 40.39508728 16.07758423 41.33704956 16.4475708 42.30755615 C17.29814542 44.53846055 18.14895066 46.76927666 19 49 C19.48415375 48.51140503 19.9683075 48.02281006 20.46713257 47.51940918 C25.48966915 42.45275776 30.51912758 37.39305542 35.55273438 32.33740234 C37.43304934 30.44813156 39.31037218 28.55601811 41.18652344 26.66259766 C43.87750019 23.94746747 46.57478762 21.23875101 49.2734375 18.53125 C50.11619232 17.67817261 50.95894714 16.82509521 51.82723999 15.94616699 C52.60789825 15.16535767 53.38855652 14.38454834 54.19287109 13.58007812 C54.88126068 12.88724731 55.56965027 12.1944165 56.27890015 11.48059082 C58 10 58 10 60 10 C60.13326033 17.84366662 60.2637655 25.68737445 60.39115143 33.53113842 C60.450439 37.17694975 60.51052882 40.82274339 60.57275391 44.46850586 C61.21728727 82.34625802 60.68942585 120.08157847 60 158 C-0.39 158 -60.78 158 -123 158 C-123.495 84.74 -123.495 84.74 -124 10 C-121 10 -121 10 -119.52033997 11.39953613 C-118.73067085 12.37835754 -118.73067085 12.37835754 -117.92504883 13.37695312 C-113.61485678 18.51588457 -108.93676077 23.22519169 -104.19921875 27.96875 C-103.28163284 28.88966431 -102.36404694 29.81057861 -101.4186554 30.75939941 C-99.49334407 32.69064622 -97.56603095 34.61986898 -95.63745117 36.54785156 C-93.16307099 39.02212908 -90.69570348 41.50327911 -88.22993755 43.98613739 C-85.8699991 46.35981192 -83.50294118 48.72633974 -81.13671875 51.09375 C-79.80709358 52.43415344 -79.80709358 52.43415344 -78.4506073 53.80163574 C-77.22341728 55.02421082 -77.22341728 55.02421082 -75.97143555 56.27148438 C-75.25086472 56.99348022 -74.53029388 57.71547607 -73.78788757 58.45935059 C-72.1408383 60.21759525 -72.1408383 60.21759525 -70 60 C-67.14432742 54.78530597 -67.14432742 54.78530597 -65.5 49.125 C-65 47 -65 47 -63.1875 45.625 C-60.58096421 44.88027549 -59.52730605 45.07088288 -57 46 C-55.35717773 47.54882812 -55.35717773 47.54882812 -53.74609375 49.53125 C-50.00375225 54.00806973 -46.06609126 58.25674332 -42.0625 62.5 C-41.37865234 63.22703125 -40.69480469 63.9540625 -39.99023438 64.703125 C-38.32805493 66.46991714 -36.66463361 68.23552048 -35 70 C-32.32156722 63.33801481 -29.65605458 56.67093816 -27 50 C-26.67483398 49.18418457 -26.34966797 48.36836914 -26.01464844 47.52783203 C-22.41833243 38.4803178 -19.04474305 29.43194166 -16.140625 20.13671875 C-15.04565394 17.12554834 -13.67062716 14.71868817 -12 12 C-11.43029305 10.4757174 -10.90607473 8.93334566 -10.4375 7.375 C-9.53998404 4.40356298 -8.76474539 2.64711809 -7 0 C-3.85907837 -1.04697388 -2.93933752 -1.35090029 0 0 Z M-5 18 C-5.17015625 18.53367187 -5.3403125 19.06734375 -5.515625 19.6171875 C-5.75796875 20.36226562 -6.0003125 21.10734375 -6.25 21.875 C-6.48203125 22.59429688 -6.7140625 23.31359375 -6.953125 24.0546875 C-8.16818308 27.47317179 -9.51991211 30.82481937 -10.87597656 34.18945312 C-14.25189382 42.63071277 -17.45162851 51.1429609 -20.70410156 59.63232422 C-21.9358017 62.83316667 -23.18041262 66.02863918 -24.4296875 69.22265625 C-24.80125977 70.17938232 -25.17283203 71.1361084 -25.55566406 72.12182617 C-26.25291045 73.91699685 -26.95515087 75.71023823 -27.66308594 77.5012207 C-27.9727832 78.30261475 -28.28248047 79.10400879 -28.6015625 79.9296875 C-29.00882568 80.96971924 -29.00882568 80.96971924 -29.42431641 82.03076172 C-30.18706265 84.29794095 -30.18706265 84.29794095 -30 88 C-33.42132357 85.32969868 -36.40069127 82.64779731 -39.21875 79.34375 C-43.0136977 74.9544129 -46.95597288 70.71987173 -50.9375 66.5 C-51.62134766 65.77296875 -52.30519531 65.0459375 -53.00976562 64.296875 C-54.67194507 62.53008286 -56.33536639 60.76447952 -58 59 C-60.55200596 61.48011847 -62.48761692 63.73643651 -64 67 C-62.88724332 69.93475392 -61.32160792 71.92466693 -59.11083984 74.11621094 C-58.24016373 74.98666046 -58.24016373 74.98666046 -57.35189819 75.87469482 C-56.41587265 76.79523651 -56.41587265 76.79523651 -55.4609375 77.734375 C-54.82008209 78.37240051 -54.17922668 79.01042603 -53.51895142 79.66778564 C-51.47562179 81.69994069 -49.42544018 83.72502218 -47.375 85.75 C-45.9865214 87.1284453 -44.5984951 88.50734636 -43.2109375 89.88671875 C-39.81251303 93.26311894 -36.40792746 96.63319288 -33 100 C-29.59646978 98.52877384 -27.38744251 96.63057487 -24.78222656 94.00927734 C-23.5514035 92.77822769 -23.5514035 92.77822769 -22.29571533 91.52230835 C-21.41953552 90.63580597 -20.54335571 89.74930359 -19.640625 88.8359375 C-18.73624695 87.92872955 -17.8318689 87.02152161 -16.90008545 86.08682251 C-14.50203542 83.68115581 -12.11005382 81.26954264 -9.71929932 78.85662842 C-7.27614829 76.39297656 -4.82728794 73.93501423 -2.37890625 71.4765625 C2.41933788 66.65626427 7.21182732 61.83030157 12 57 C9.47128224 49.24054023 6.56609573 41.68857833 3.5 34.125 C2.77103516 32.29195312 2.77103516 32.29195312 2.02734375 30.421875 C1.55425781 29.25398438 1.08117187 28.08609375 0.59375 26.8828125 C0.16771484 25.82465332 -0.25832031 24.76649414 -0.69726562 23.67626953 C-1.89883366 21.20783085 -2.9262931 19.7550826 -5 18 Z M-114 31 C-114 65.32 -114 99.64 -114 135 C-110.89568411 131.89568411 -109.05933153 128.74439359 -107 124.9375 C-103.59387051 118.75146729 -100.02696467 112.69324823 -96.3125 106.6875 C-92.8858496 101.13775266 -89.59026401 95.57099564 -86.55078125 89.796875 C-85.2924211 87.52738919 -83.98229234 85.3379906 -82.60546875 83.140625 C-82.18604004 82.46604248 -81.76661133 81.79145996 -81.33447266 81.09643555 C-80.50227009 79.7657101 -79.65984795 78.44130788 -78.80615234 77.12426758 C-76.66308952 73.73694046 -76.66308952 73.73694046 -75.93359375 69.87109375 C-77.521232 67.08545741 -79.6604376 65.18004678 -82 63 C-92.66666667 52.33333333 -103.33333333 41.66666667 -114 31 Z M38.33398438 42.26098633 C37.03063437 43.54273295 35.72105797 44.81817959 34.40527344 46.0871582 C32.51337193 47.91230628 30.64177097 49.75623905 28.7734375 51.60546875 C28.18082123 52.17025436 27.58820496 52.73503998 26.97763062 53.31694031 C23.80984573 56.38584299 23.80984573 56.38584299 22.99975586 60.53808594 C23.32983643 61.35051758 23.65991699 62.16294922 24 63 C24.32766357 63.90758057 24.65532715 64.81516113 24.99291992 65.75024414 C25.40131104 66.75176514 25.80970215 67.75328613 26.23046875 68.78515625 C26.69743164 69.93935059 27.16439453 71.09354492 27.64550781 72.28271484 C27.89643188 72.89765808 28.14735596 73.51260132 28.40588379 74.1461792 C29.75830478 77.4619657 31.09580501 80.78375733 32.43359375 84.10546875 C32.7176004 84.81000183 33.00160706 85.51453491 33.29421997 86.24041748 C36.85324578 95.08972047 40.3011305 103.98232559 43.75 112.875 C44.06367523 113.68333282 44.37735046 114.49166565 44.70053101 115.32449341 C46.46901022 119.88222653 48.23547805 124.44073343 50 129 C50.33 129 50.66 129 51 129 C51 96.66 51 64.32 51 31 C47.46777983 31 40.89739188 39.72965381 38.33398438 42.26098633 Z M15 66 C-7.77 88.77 -7.77 88.77 -31 112 C-34.32748169 110.33625916 -35.86992305 109.37710451 -38.35986328 106.8671875 C-38.99376984 106.23312988 -39.62767639 105.59907227 -40.28079224 104.94580078 C-40.95383392 104.26243652 -41.62687561 103.57907227 -42.3203125 102.875 C-43.37011795 101.82094971 -43.37011795 101.82094971 -44.44113159 100.74560547 C-46.67383049 98.50172579 -48.8994762 96.25099406 -51.125 94 C-52.63104932 92.48391682 -54.13755459 90.96828642 -55.64453125 89.453125 C-58.95777381 86.12022216 -62.26658579 82.78299211 -65.57156372 79.44189453 C-66.71123964 78.29148096 -67.85494267 77.14505733 -69 76 C-69.40839111 76.70084717 -69.81678223 77.40169434 -70.23754883 78.1237793 C-72.09553651 81.31187828 -73.95401335 84.49969186 -75.8125 87.6875 C-76.45509766 88.79029297 -77.09769531 89.89308594 -77.75976562 91.02929688 C-78.38173828 92.09599609 -79.00371094 93.16269531 -79.64453125 94.26171875 C-80.21534424 95.24100342 -80.78615723 96.22028809 -81.37426758 97.22924805 C-82.4509657 99.06427538 -83.56274768 100.87919782 -84.7097168 102.67114258 C-86.24231523 104.9936251 -86.24231523 104.9936251 -86 108 C-86.66 108 -87.32 108 -88 108 C-88.33668701 108.62511475 -88.67337402 109.25022949 -89.02026367 109.89428711 C-93.33183622 117.85350338 -97.80678527 125.71242132 -102.3125 133.5625 C-103.40360111 135.46500065 -104.49437033 137.3676898 -105.58451843 139.27073669 C-106.55994054 140.9733019 -107.53640978 142.67526707 -108.51293945 144.37719727 C-109.3759601 145.89934975 -110.21747169 147.43494337 -111 149 C-58.2 149 -5.4 149 49 149 C45.24023727 138.97396605 41.44772317 129.01918624 37.375 119.125 C36.44502303 116.8568895 35.51533079 114.58866223 34.5859375 112.3203125 C34.14685059 111.24990723 33.70776367 110.17950195 33.25537109 109.07666016 C31.76739114 105.42992282 30.30716451 101.77254955 28.84912109 98.11376953 C27.80716666 95.51996807 26.72045909 92.94660964 25.625 90.375 C23.25222959 84.73324249 21.11407787 79.0179075 19.05517578 73.25537109 C17.60987854 69.2792657 17.60987854 69.2792657 15 66 Z " fill="#0747CA" transform="translate(129,2)"/>
<path d="M0 0 C7 1 7 1 8.5 2.875 C9 5 9 5 8 8 C8.66 8.33 9.32 8.66 10 9 C10.33 8.34 10.66 7.68 11 7 C11.66 7.33 12.32 7.66 13 8 C12.67 9.32 12.34 10.64 12 12 C10.68 12 9.36 12 8 12 C8 47.64 8 83.28 8 120 C8.99 119.01 9.98 118.02 11 117 C11.66 117 12.32 117 13 117 C13 116.01 13 115.02 13 114 C14.32 114.33 15.64 114.66 17 115 C16.67 116.98 16.34 118.96 16 121 C14.515 121.495 14.515 121.495 13 122 C13.20625 122.763125 13.4125 123.52625 13.625 124.3125 C14 127 14 127 12 130 C64.14 130 116.28 130 170 130 C169.67 129.34 169.34 128.68 169 128 C168.875 124.4375 168.875 124.4375 169 121 C169.33 120.67 169.66 120.34 170 120 C169.71269945 117.66055264 169.38063221 115.3260857 169 113 C169.99 112.67 170.98 112.34 172 112 C172.66 111.67 173.32 111.34 174 111 C174.495 67.44 174.495 67.44 175 23 C176.98 22.505 176.98 22.505 179 22 C181.13238821 25.19858231 181.24864896 25.98364445 181.24050903 29.65068054 C181.24464152 31.08009114 181.24464152 31.08009114 181.2488575 32.53837872 C181.23806317 34.11012466 181.23806317 34.11012466 181.22705078 35.71362305 C181.22729185 36.83406163 181.22753292 37.95450022 181.2277813 39.10889149 C181.22628603 42.74324744 181.21104332 46.3773994 181.1953125 50.01171875 C181.19237273 52.25248109 181.19033188 54.4932448 181.18920898 56.73400879 C181.17871399 65.05186011 181.15079168 73.36968205 181.125 81.6875 C181.08375 100.270625 181.0425 118.85375 181 138 C121.6 138 62.2 138 1 138 C0.67 92.46 0.34 46.92 0 0 Z " fill="#0549D0" transform="translate(7,20)"/>
<path d="M0 0 C3 0 3 0 4.47966003 1.39953613 C5.26932915 2.37835754 5.26932915 2.37835754 6.07495117 3.37695312 C10.38514322 8.51588457 15.06323923 13.22519169 19.80078125 17.96875 C20.71836716 18.88966431 21.63595306 19.81057861 22.5813446 20.75939941 C24.50665593 22.69064622 26.43396905 24.61986898 28.36254883 26.54785156 C30.83692901 29.02212908 33.30429652 31.50327911 35.77006245 33.98613739 C38.1300009 36.35981192 40.49705882 38.72633974 42.86328125 41.09375 C44.19290642 42.43415344 44.19290642 42.43415344 45.5493927 43.80163574 C46.77658272 45.02421082 46.77658272 45.02421082 48.02856445 46.27148438 C48.74913528 46.99348022 49.46970612 47.71547607 50.21211243 48.45935059 C51.8591617 50.21759525 51.8591617 50.21759525 54 50 C56.85567258 44.78530597 56.85567258 44.78530597 58.5 39.125 C59 37 59 37 60.8125 35.625 C63.35904274 34.89741636 64.58704922 34.91833241 67 36 C67.33 36.99 67.66 37.98 68 39 C67.2575 39 66.515 39 65.75 39 C62.51186416 40.17750394 62.29410545 40.77560718 60.8125 43.75 C59.78048521 46.06171314 58.85006147 48.38807619 57.9375 50.75 C56.43381558 54.35884261 54.99875951 56.4365972 51.5625 58.375 C49 59 49 59 46.6875 58.125 C46.130625 57.75375 45.57375 57.3825 45 57 C45 56.34 45 55.68 45 55 C44.44828125 54.773125 43.8965625 54.54625 43.328125 54.3125 C40.31307583 52.61274074 38.18769631 50.45195184 35.75 48 C34.41195312 46.6696875 34.41195312 46.6696875 33.046875 45.3125 C31 43 31 43 31 41 C30.41951904 40.74404053 29.83903809 40.48808105 29.2409668 40.22436523 C26.78159936 38.88067554 25.12737213 37.38604067 23.14453125 35.41015625 C22.44005859 34.70826172 21.73558594 34.00636719 21.00976562 33.28320312 C20.28466797 32.55037109 19.55957031 31.81753906 18.8125 31.0625 C18.07580078 30.33353516 17.33910156 29.60457031 16.58007812 28.85351562 C15.87947266 28.15033203 15.17886719 27.44714844 14.45703125 26.72265625 C13.81741455 26.08078369 13.17779785 25.43891113 12.51879883 24.77758789 C11 23 11 23 10 20 C11.32 19.67 12.64 19.34 14 19 C13.67 18.34 13.34 17.68 13 17 C10.97536745 16.34786708 10.97536745 16.34786708 9 16 C9.33 14.35 9.66 12.7 10 11 C7.36 10.01 4.72 9.02 2 8 C2.33 8.99 2.66 9.98 3 11 C3.0907313 12.82681607 3.12195281 14.65681858 3.12025452 16.48588562 C3.12163201 17.62354968 3.12300951 18.76121374 3.12442875 19.93335247 C3.12083064 21.18728707 3.11723253 22.44122168 3.11352539 23.7331543 C3.11321908 25.08518121 3.11335251 26.43720828 3.11389065 27.78923512 C3.11411658 31.41276955 3.10831701 35.03627102 3.10128021 38.65979767 C3.09558901 42.05888473 3.09531729 45.45796375 3.09460449 48.85705566 C3.08935532 58.80054148 3.0753942 68.74402116 3.0625 78.6875 C3.041875 100.900625 3.02125 123.11375 3 146 C62.4 146 121.8 146 183 146 C182.855625 127.39625 182.71125 108.7925 182.5625 89.625 C182.51939697 83.74381348 182.47629395 77.86262695 182.43188477 71.80322266 C182.38864688 66.54618285 182.38864688 66.54618285 182.34410095 61.28915405 C182.32483911 58.94175607 182.30752684 56.5943416 182.29173279 54.24691772 C182.26748002 50.69792388 182.23710383 47.14903097 182.20532227 43.60009766 C182.19955201 42.54866892 182.19378176 41.49724018 182.18783665 40.41394997 C182.17806262 39.46238707 182.16828859 38.51082417 182.15821838 37.53042603 C182.15176583 36.69896875 182.14531328 35.86751148 182.1386652 35.01085854 C182.12459816 32.92867791 182.12459816 32.92867791 181 31 C180.34 31.33 179.68 31.66 179 32 C178.34 31.67 177.68 31.34 177 31 C177 60.04 177 89.08 177 119 C176.34 119 175.68 119 175 119 C174.67 86.99 174.34 54.98 174 22 C170.04 25.96 166.08 29.92 162 34 C161.67 33.01 161.34 32.02 161 31 C162.4375 28.3125 162.4375 28.3125 164 26 C162.88625 26.5259375 162.88625 26.5259375 161.75 27.0625 C158.78877125 28.0720098 157.87937439 27.87980884 155 27 C158.80223917 23.14844023 162.61091212 19.30340607 166.42578125 15.46435547 C167.72348514 14.15657422 169.01939099 12.84700631 170.31347656 11.53564453 C172.17046398 9.65448499 174.03375562 7.77977878 175.8984375 5.90625 C176.47870697 5.31565796 177.05897644 4.72506592 177.65682983 4.11657715 C179.06709628 2.70591649 180.52917142 1.34739684 182 0 C182.66 0 183.32 0 184 0 C184.13326033 7.84366662 184.2637655 15.68737445 184.39115143 23.53113842 C184.450439 27.17694975 184.51052882 30.82274339 184.57275391 34.46850586 C185.21728727 72.34625802 184.68942585 110.08157847 184 148 C123.61 148 63.22 148 1 148 C0.505 74.74 0.505 74.74 0 0 Z " fill="#0647BA" transform="translate(5,12)"/>
<path d="M0 0 C0.13326033 7.84366662 0.2637655 15.68737445 0.39115143 23.53113842 C0.450439 27.17694975 0.51052882 30.82274339 0.57275391 34.46850586 C1.21728727 72.34625802 0.68942585 110.08157847 0 148 C-60.39 148 -120.78 148 -183 148 C-183 132.16 -183 116.32 -183 100 C-182.67 100 -182.34 100 -182 100 C-182 115.51 -182 131.02 -182 147 C-122.27 147 -62.54 147 -1 147 C-1.144375 128.23125 -1.28875 109.4625 -1.4375 90.125 C-1.48060303 84.19160645 -1.52370605 78.25821289 -1.56811523 72.14501953 C-1.61135303 66.84140995 -1.61135303 66.84140995 -1.65589905 61.53781128 C-1.67516116 59.16957984 -1.69247336 56.80133206 -1.70826721 54.43307495 C-1.73251942 50.85262812 -1.7628957 47.27228135 -1.79467773 43.69189453 C-1.80044799 42.63109743 -1.80621824 41.57030033 -1.81216335 40.47735786 C-1.82193738 39.51739843 -1.83171141 38.557439 -1.84178162 37.56838989 C-1.84823417 36.72955828 -1.85468672 35.89072666 -1.8613348 35.02647591 C-1.87404386 32.93098702 -1.87404386 32.93098702 -3 31 C-3.66 31.33 -4.32 31.66 -5 32 C-5.66 31.67 -6.32 31.34 -7 31 C-7 60.04 -7 89.08 -7 119 C-7.66 119 -8.32 119 -9 119 C-9.33 86.99 -9.66 54.98 -10 22 C-13.96 25.96 -17.92 29.92 -22 34 C-22.33 33.01 -22.66 32.02 -23 31 C-21.5625 28.3125 -21.5625 28.3125 -20 26 C-21.11375 26.5259375 -21.11375 26.5259375 -22.25 27.0625 C-25.21122875 28.0720098 -26.12062561 27.87980884 -29 27 C-25.19776083 23.14844023 -21.38908788 19.30340607 -17.57421875 15.46435547 C-16.27651486 14.15657422 -14.98060901 12.84700631 -13.68652344 11.53564453 C-11.82953602 9.65448499 -9.96624438 7.77977878 -8.1015625 5.90625 C-7.52129303 5.31565796 -6.94102356 4.72506592 -6.34317017 4.11657715 C-2.22774341 0 -2.22774341 0 0 0 Z " fill="#1A49AA" transform="translate(189,12)"/>
<path d="M0 0 C0.39058179 2.24734752 0.76192958 4.49804421 1.125 6.75 C1.33382812 8.00296875 1.54265625 9.2559375 1.7578125 10.546875 C2.09895262 15.41087282 2.09895262 15.41087282 0 18 C-1.32901745 18.35014498 -2.66241011 18.68418016 -4 19 C-5.16665973 21.67359522 -6.09654699 24.23919435 -7 27 C-7.59157287 28.52577617 -8.19644376 30.0464439 -8.8125 31.5625 C-9.14378906 32.38621094 -9.47507812 33.20992187 -9.81640625 34.05859375 C-10.20699219 35.02925781 -10.59757812 35.99992187 -11 37 C-12.08440725 39.70790401 -13.16716117 42.4164685 -14.25 45.125 C-14.77601465 46.44011497 -15.30205414 47.75522001 -15.828125 49.0703125 C-16.21484375 50.03710938 -16.6015625 51.00390625 -17 52 C-18.22125924 48.33622228 -17.61957415 46.75337378 -16.625 43.0625 C-16.21121094 41.50208984 -16.21121094 41.50208984 -15.7890625 39.91015625 C-15.32571938 38.20129177 -14.8577559 36.49364681 -14.37890625 34.7890625 C-13.85026375 32.29299789 -14.27949427 30.42351928 -15 28 C-15.66 27.67 -16.32 27.34 -17 27 C-17.33 29.31 -17.66 31.62 -18 34 C-18.66 34 -19.32 34 -20 34 C-18.42299723 26.68844172 -15.77069439 19.93469774 -13 13 C-12.57203125 11.86691406 -12.1440625 10.73382813 -11.703125 9.56640625 C-11.28546875 8.49261719 -10.8678125 7.41882813 -10.4375 6.3125 C-10.06496094 5.33925781 -9.69242188 4.36601563 -9.30859375 3.36328125 C-6.99750295 -0.81047975 -4.41480467 -1.57671595 0 0 Z " fill="#0549BE" transform="translate(129,2)"/>
<path d="M0 0 C4.0004202 3.45982288 5.61416897 6.15789752 7.24609375 11.15625 C7.94857283 13.22561881 7.94857283 13.22561881 10.125 15.0625 C12.78513109 17.81130213 12.51378405 20.23182638 13 24 C13.67663772 25.65911569 14.38752394 27.30451729 15.125 28.9375 C17.18980544 33.83019114 17.30725124 36.86437011 16 42 C15.01 42.495 15.01 42.495 14 43 C14 41.68 14 40.36 14 39 C13.01 39 12.02 39 11 39 C10.731875 38.21625 10.46375 37.4325 10.1875 36.625 C9.15185568 33.71885077 9.15185568 33.71885077 6 32 C2.56604995 25.39260646 1.51961213 18.70223992 1.2734375 11.3359375 C1.18320313 10.56507812 1.09296875 9.79421875 1 9 C0.34 8.67 -0.32 8.34 -1 8 C-0.67 5.36 -0.34 2.72 0 0 Z " fill="#0347D5" transform="translate(149,65)"/>
<path d="M0 0 C0.495 0.99 0.495 0.99 1 2 C1.66 2.33 2.32 2.66 3 3 C0.87219421 5.34058637 -1.11562221 6.70700306 -4 8 C-3.505 9.98 -3.505 9.98 -3 12 C-5.64 12 -8.28 12 -11 12 C-11.33 12.99 -11.66 13.98 -12 15 C-12.66 15.66 -13.32 16.32 -14 17 C-14.16687448 19.58354218 -14.16687448 19.58354218 -14 22 C-15.65 22.33 -17.3 22.66 -19 23 C-19 24.32 -19 25.64 -19 27 C-21.3125 27.6875 -21.3125 27.6875 -24 28 C-25.8125 26.6875 -25.8125 26.6875 -27 25 C-27 24.34 -27 23.68 -27 23 C-27.66 22.67 -28.32 22.34 -29 22 C-29 21.34 -29 20.68 -29 20 C-29.78375 19.9175 -30.5675 19.835 -31.375 19.75 C-34 19 -34 19 -35.3125 16.9375 C-35.6528125 15.9784375 -35.6528125 15.9784375 -36 15 C-35.34 14.01 -34.68 13.02 -34 12 C-30.4213696 13.65167557 -27.25179812 15.78286492 -24 18 C-20.18837538 16.45616119 -18.05806771 14.07333995 -15.3125 11.0625 C-10.73881554 6.35289624 -7.36077044 4.436303 -1 3 C-1.495 2.01 -1.495 2.01 -2 1 C-1.34 0.67 -0.68 0.34 0 0 Z " fill="#0548D6" transform="translate(120,83)"/>
<path d="M0 0 C1.65 0 3.3 0 5 0 C6 3 6 3 4.5625 6.1875 C3.7890625 7.5796875 3.7890625 7.5796875 3 9 C2.34 9 1.68 9 1 9 C0.01 11.31 -0.98 13.62 -2 16 C-2.66 16 -3.32 16 -4 16 C-3.979375 16.804375 -3.95875 17.60875 -3.9375 18.4375 C-4 21 -4 21 -5 22 C-3.68 22.33 -2.36 22.66 -1 23 C-0.67 24.65 -0.34 26.3 0 28 C-0.99 28.33 -1.98 28.66 -3 29 C-5 28 -7 27 -9 26 C-11.75146274 25.74715633 -11.75146274 25.74715633 -14 26 C-14.66 23.69 -15.32 21.38 -16 19 C-14.329375 18.87625 -14.329375 18.87625 -12.625 18.75 C-11.42875 18.5025 -10.2325 18.255 -9 18 C-7.88951789 16.32794689 -7.88951789 16.32794689 -7 14 C-4.66666667 9.33333333 -2.33333333 4.66666667 0 0 Z " fill="#0248D7" transform="translate(68,51)"/>
<path d="M0 0 C0.495 1.485 0.495 1.485 1 3 C0.2575 3 -0.485 3 -1.25 3 C-4.48813584 4.17750394 -4.70589455 4.77560718 -6.1875 7.75 C-7.21951479 10.06171314 -8.14993853 12.38807619 -9.0625 14.75 C-10.56618442 18.35884261 -12.00124049 20.4365972 -15.4375 22.375 C-18 23 -18 23 -20.3125 22.125 C-20.869375 21.75375 -21.42625 21.3825 -22 21 C-22 20.34 -22 19.68 -22 19 C-22.55300781 18.77183594 -23.10601562 18.54367188 -23.67578125 18.30859375 C-26.66680654 16.62457111 -28.76971769 14.49456758 -31.1875 12.0625 C-32.06792969 11.18722656 -32.94835938 10.31195313 -33.85546875 9.41015625 C-36 7 -36 7 -37 4 C-33 4 -33 4 -31.25 5.5 C-30.8375 5.995 -30.425 6.49 -30 7 C-30.33 7.66 -30.66 8.32 -31 9 C-30.01 9.33 -29.02 9.66 -28 10 C-28 10.66 -28 11.32 -28 12 C-27.34 12 -26.68 12 -26 12 C-25.773125 12.598125 -25.54625 13.19625 -25.3125 13.8125 C-23.66188867 16.56351888 -21.8027919 17.52484637 -19 19 C-19 16.36 -19 13.72 -19 11 C-18.38125 11.495 -17.7625 11.99 -17.125 12.5 C-15.16119096 14.19222773 -15.16119096 14.19222773 -13 14 C-10.14432742 8.78530597 -10.14432742 8.78530597 -8.5 3.125 C-8 1 -8 1 -6.1875 -0.375 C-3.64095726 -1.10258364 -2.41295078 -1.08166759 0 0 Z M-26 9 C-26 12 -26 12 -26 12 Z " fill="#0048CD" transform="translate(72,48)"/>
<path d="M0 0 C2.58669184 2.58669184 3.33142942 5.06456615 4.64453125 8.484375 C4.89619553 9.13641907 5.1478598 9.78846313 5.40715027 10.46026611 C5.94165086 11.84804151 6.47358903 13.23680611 7.00317383 14.62646484 C7.794315 16.70228564 8.5926395 18.77521209 9.39257812 20.84765625 C12.72859863 29.5190526 15.91725407 38.23534703 19 47 C18.34 47 17.68 47 17 47 C16.34 44.36 15.68 41.72 15 39 C14.01 39 13.02 39 12 39 C10.82190474 35.77987295 9.9992357 32.99159275 9.6875 29.5625 C8.79379795 24.93149849 6.91753532 22.6656213 4 19 C3.67 21.64 3.34 24.28 3 27 C2.34 27 1.68 27 1 27 C0.29819469 25.5903653 -0.38593958 24.17192359 -1.0625 22.75 C-1.44535156 21.96109375 -1.82820313 21.1721875 -2.22265625 20.359375 C-3.08564091 17.74006478 -2.93045933 16.55144824 -2 14 C-1.34 14.33 -0.68 14.66 0 15 C1.5111995 9.96266834 0.64599773 5.11828973 0 0 Z " fill="#0C49B3" transform="translate(129,5)"/>
<path d="M0 0 C0.66 0 1.32 0 2 0 C2 0.99 2 1.98 2 3 C3.03253906 3.2165625 4.06507812 3.433125 5.12890625 3.65625 C9.34827194 4.86390921 11.99216003 7.34689746 14.9375 10.5 C15.43056641 10.99886719 15.92363281 11.49773438 16.43164062 12.01171875 C20 15.70380765 20 15.70380765 20 18 C20.99 18 21.98 18 23 18 C23.79953138 21.28696233 24.09658936 22.71023192 23 26 C20.625 25.3125 20.625 25.3125 18 24 C16.6875 21.375 16.6875 21.375 16 19 C15.34 19 14.68 19 14 19 C11.4132178 16.93057424 10.5590888 15.24271506 10 12 C9.01 12 8.02 12 7 12 C3.38930736 11.49535595 2.00343279 10.25429099 -0.25 7.4375 C-0.77078125 6.79683594 -1.2915625 6.15617187 -1.828125 5.49609375 C-2.21484375 5.00238281 -2.6015625 4.50867187 -3 4 C-2.34 3.67 -1.68 3.34 -1 3 C-0.67 2.01 -0.34 1.02 0 0 Z M16 16 C16 19 16 19 16 19 Z " fill="#0246D0" transform="translate(30,41)"/>
<path d="M0 0 C0 3 0 3 -1.2421875 4.39453125 C-1.78101563 4.86246094 -2.31984375 5.33039062 -2.875 5.8125 C-5.87810429 8.62571245 -6.80487361 11.04688965 -8 15 C-8.99 15.33 -9.98 15.66 -11 16 C-10.24849977 19.27773504 -10.24849977 19.27773504 -7 21 C-10.3 24.3 -13.6 27.6 -17 31 C-17.33 30.01 -17.66 29.02 -18 28 C-16.5625 25.3125 -16.5625 25.3125 -15 23 C-15.7425 23.350625 -16.485 23.70125 -17.25 24.0625 C-20 25 -20 25 -24 24 C-16.08 16.08 -8.16 8.16 0 0 Z " fill="#0748B4" transform="translate(184,15)"/>
<path d="M0 0 C0.33 0 0.66 0 1 0 C1 2.31 1 4.62 1 7 C0.34 7 -0.32 7 -1 7 C-1 9.64 -1 12.28 -1 15 C-0.01 14.34 0.98 13.68 2 13 C2.25030977 10.41619823 2.25030977 10.41619823 2 8 C5 9 5 9 5.875 10.625 C6.02266556 13.43064573 5.20548908 15.2355897 4.0234375 17.74609375 C2.71913458 20.61854713 1.61764892 23.55008422 0.5 26.5 C-1.23669517 31.04898705 -3.03220756 35.546575 -5 40 C-6.22125924 36.33622228 -5.61957415 34.75337378 -4.625 31.0625 C-4.34914063 30.02222656 -4.07328125 28.98195313 -3.7890625 27.91015625 C-3.32571938 26.20129177 -2.8577559 24.49364681 -2.37890625 22.7890625 C-1.85026375 20.29299789 -2.27949427 18.42351928 -3 16 C-3.66 15.67 -4.32 15.34 -5 15 C-5.33 17.31 -5.66 19.62 -6 22 C-6.66 22 -7.32 22 -8 22 C-4.15 4.15 -4.15 4.15 0 0 Z " fill="#265AB9" transform="translate(117,14)"/>
<path d="M0 0 C0.625 1.875 0.625 1.875 1 4 C0.34 4.66 -0.32 5.32 -1 6 C-1.64767793 8.57061311 -1.64767793 8.57061311 -2 11 C-0.68 11.66 0.64 12.32 2 13 C2 11.68 2 10.36 2 9 C2.66 9 3.32 9 4 9 C3.67 7.68 3.34 6.36 3 5 C4.32 5 5.64 5 7 5 C6.36816907 8.0835768 5.32811656 10.41377992 3.71484375 13.109375 C3.04291992 14.24052734 3.04291992 14.24052734 2.35742188 15.39453125 C1.65456055 16.56048828 1.65456055 16.56048828 0.9375 17.75 C0.46505859 18.54277344 -0.00738281 19.33554688 -0.49414062 20.15234375 C-1.65826573 22.1043111 -2.82699902 24.05335805 -4 26 C-4.33 24.68 -4.66 23.36 -5 22 C-4.34 22 -3.68 22 -3 22 C-1.92474806 19.34771188 -0.90543849 16.71631546 0 14 C-1.65 14.33 -3.3 14.66 -5 15 C-5.33 16.65 -5.66 18.3 -6 20 C-7.32 20 -8.64 20 -10 20 C-10.0825 20.7425 -10.165 21.485 -10.25 22.25 C-11.1396946 25.51221354 -12.48503749 26.80954878 -15 29 C-15 19.59885617 -4.87887795 8.03388568 0 0 Z " fill="#0C45B6" transform="translate(34,105)"/>
<path d="M0 0 C7.07651331 5.62904468 12.95490616 12.3096991 19 19 C18.34 19.33 17.68 19.66 17 20 C13.41081097 18.25142073 11.09065783 16.4110733 9 13 C9 12.34 9 11.68 9 11 C8.01 10.67 7.02 10.34 6 10 C5.67 9.34 5.34 8.68 5 8 C4.01 8.33 3.02 8.66 2 9 C2.66 9.66 3.32 10.32 4 11 C4.165 11.680625 4.33 12.36125 4.5 13.0625 C4.665 13.701875 4.83 14.34125 5 15 C5.66 15.33 6.32 15.66 7 16 C7.72693904 17.97888961 8.39816251 19.97954558 9 22 C8.319375 21.29875 7.63875 20.5975 6.9375 19.875 C3.79219487 16.72065663 0.4111614 13.86065696 -3 11 C-3.66 11.66 -4.32 12.32 -5 13 C-5 11.35 -5 9.7 -5 8 C-4.01 7.67 -3.02 7.34 -2 7 C-0.81480735 4.56723614 0 2.71982714 0 0 Z " fill="#1348BF" transform="translate(73,51)"/>
<path d="M0 0 C5.04271266 5.02191796 7.29554114 7.67362789 8 15 C7.01 15.66 6.02 16.32 5 17 C5.165 17.556875 5.33 18.11375 5.5 18.6875 C6.04041351 21.18691249 6.07082065 23.45045662 6 26 C6.66 26 7.32 26 8 26 C8.33 28.64 8.66 31.28 9 34 C3.30277763 27.3884086 -0.71382501 16.7825177 -1.23046875 8.1484375 C-0.98132137 5.36463079 -0.63465265 2.71993992 0 0 Z " fill="#0D48B9" transform="translate(132,23)"/>
<path d="M0 0 C0.39143394 1.74639757 0.76254287 3.49735918 1.125 5.25 C1.33382812 6.22453125 1.54265625 7.1990625 1.7578125 8.203125 C2.0216059 11.24951324 1.74693567 12.52421038 0 15 C-1.33333333 15.33333333 -2.66666667 15.66666667 -4 16 C-5.28436734 17.9837767 -5.28436734 17.9837767 -6 20 C-5.95875 18.7625 -5.9175 17.525 -5.875 16.25 C-5.86306581 12.84278918 -6.44016414 11.02218197 -8 8 C-8.0777346 5.66796188 -8.08967728 3.33160941 -8 1 C-5.10765685 0.17361624 -3.11257569 0 0 0 Z " fill="#0E4FD1" transform="translate(129,5)"/>
<path d="M0 0 C0.66 0 1.32 0 2 0 C2.625 3.375 2.625 3.375 3 7 C2.34 7.66 1.68 8.32 1 9 C0.59952556 11.32275177 0.2602896 13.65739357 0 16 C-0.99 16.33 -1.98 16.66 -3 17 C-3.66 16.67 -4.32 16.34 -5 16 C-4.67 17.32 -4.34 18.64 -4 20 C-4.66 20 -5.32 20 -6 20 C-6 21.32 -6 22.64 -6 24 C-7.32 23.67 -8.64 23.34 -10 23 C-10.125 20.125 -10.125 20.125 -10 17 C-9.34 16.34 -8.68 15.68 -8 15 C-7.29289322 13.35008418 -6.62056011 11.68437744 -6 10 C-5.34 10 -4.68 10 -4 10 C-4 9.34 -4 8.68 -4 8 C-3.34 7.67 -2.68 7.34 -2 7 C-1.26924352 4.6859378 -0.59861742 2.35171131 0 0 Z " fill="#0349D3" transform="translate(42,94)"/>
<path d="M0 0 C0.58984375 1.87890625 0.58984375 1.87890625 1 4 C0.00692179 5.33849671 -0.99357052 6.67151309 -2 8 C-2.25124826 10.66761764 -2.25124826 10.66761764 -2 13 C-1.34 13 -0.68 13 0 13 C0.99 13.33 1.98 13.66 3 14 C1.87616008 15.93817313 0.75088679 17.87551518 -0.375 19.8125 C-1.00148438 20.89144531 -1.62796875 21.97039062 -2.2734375 23.08203125 C-3.46055346 25.08831093 -4.70689373 27.06034059 -6 29 C-6.125 25.625 -6.125 25.625 -6 22 C-5.34 21.34 -4.68 20.68 -4 20 C-3.83322718 16.41656024 -3.83322718 16.41656024 -4 13 C-4.66 13 -5.32 13 -6 13 C-6.33 15.31 -6.66 17.62 -7 20 C-7.99 20.33 -8.98 20.66 -10 21 C-10 21.66 -10 22.32 -10 23 C-10.99 23.33 -11.98 23.66 -13 24 C-9.75498194 15.46452595 -4.91595416 7.66310501 0 0 Z " fill="#0C47B3" transform="translate(48,81)"/>
<path d="M0 0 C0.99 0.33 1.98 0.66 3 1 C3.87917273 4.73648411 4.25032809 8.16163598 4 12 C3.01 13.485 3.01 13.485 2 15 C1.31822584 16.32567199 0.64808564 17.65753688 0 19 C-0.33 18.34 -0.66 17.68 -1 17 C-1.66 17 -2.32 17 -3 17 C-3 16.34 -3 15.68 -3 15 C-3.99 15 -4.98 15 -6 15 C-5.34 12.36 -4.68 9.72 -4 7 C-3.01 7 -2.02 7 -1 7 C-0.67 4.69 -0.34 2.38 0 0 Z " fill="#0149C4" transform="translate(112,29)"/>
<path d="M0 0 C2 1.3125 2 1.3125 4 3 C4 3.99 4 4.98 4 6 C4.99 6 5.98 6 7 6 C9.61895048 10.77573323 8.83119431 14.84434881 8 20 C7.01 20.33 6.02 20.66 5 21 C5 19.35 5 17.7 5 16 C4.34 16 3.68 16 3 16 C3 14.35 3 12.7 3 11 C2.34 11 1.68 11 1 11 C0.63890458 9.35567294 0.28629924 7.7094792 -0.0625 6.0625 C-0.25972656 5.14597656 -0.45695313 4.22945312 -0.66015625 3.28515625 C-0.77230469 2.53105469 -0.88445312 1.77695312 -1 1 C-0.67 0.67 -0.34 0.34 0 0 Z " fill="#0547D5" transform="translate(137,38)"/>
<path d="M0 0 C3.81936528 1.55603771 6.26044438 3.95604931 9 7 C9 7.66 9 8.32 9 9 C9.61875 9.309375 10.2375 9.61875 10.875 9.9375 C12.25 10.625 13.625 11.3125 15 12 C15 12.99 15 13.98 15 15 C12.6875 15.6875 12.6875 15.6875 10 16 C8.1875 14.6875 8.1875 14.6875 7 13 C7 12.34 7 11.68 7 11 C6.34 10.67 5.68 10.34 5 10 C5 9.34 5 8.68 5 8 C4.21625 7.9175 3.4325 7.835 2.625 7.75 C0 7 0 7 -1.3125 4.9375 C-1.539375 4.298125 -1.76625 3.65875 -2 3 C-1.34 2.01 -0.68 1.02 0 0 Z " fill="#004AD6" transform="translate(86,95)"/>
<path d="M0 0 C4.03590729 0.56502702 6.12337152 0.95983562 8.80078125 4.13671875 C10.28105062 6.38715213 11.6809581 8.65181552 13 11 C11.6875 12.5 11.6875 12.5 10 14 C9.01 14 8.02 14 7 14 C7 13.34 7 12.68 7 12 C6.01 12 5.02 12 4 12 C1.50550699 9.59789562 1.01481992 8.37049789 0.875 4.875 C0.91625 3.92625 0.9575 2.9775 1 2 C0.67 1.34 0.34 0.68 0 0 Z " fill="#0148D5" transform="translate(73,83)"/>
<path d="M0 0 C0.66 0 1.32 0 2 0 C3.125 6.75 3.125 6.75 2 9 C1.34 9 0.68 9 0 9 C-0.33 11.31 -0.66 13.62 -1 16 C-1.99 16 -2.98 16 -4 16 C-4.33 16.66 -4.66 17.32 -5 18 C-7.09230769 14.55384615 -7.09230769 14.55384615 -6.6875 12.125 C-5.956243 9.86475109 -5.02748274 7.85964401 -3.9375 5.75 C-3.57527344 5.04359375 -3.21304688 4.3371875 -2.83984375 3.609375 C-2.56269531 3.07828125 -2.28554688 2.5471875 -2 2 C-1.34 2 -0.68 2 0 2 C0 1.34 0 0.68 0 0 Z " fill="#0448D2" transform="translate(52,78)"/>
<path d="M0 0 C0.33 0.99 0.66 1.98 1 3 C0.2575 3 -0.485 3 -1.25 3 C-4.48813584 4.17750394 -4.70589455 4.77560718 -6.1875 7.75 C-6.81276606 9.1574815 -7.4183225 10.57395193 -8 12 C-8.4125 12.99 -8.825 13.98 -9.25 15 C-9.4975 15.66 -9.745 16.32 -10 17 C-15.53846154 16.38461538 -15.53846154 16.38461538 -17.875 14.4375 C-18.24625 13.963125 -18.6175 13.48875 -19 13 C-18.67 12.34 -18.34 11.68 -18 11 C-17.54625 11.495 -17.0925 11.99 -16.625 12.5 C-15.12364481 14.22609337 -15.12364481 14.22609337 -13 14 C-10.14432742 8.78530597 -10.14432742 8.78530597 -8.5 3.125 C-8 1 -8 1 -6.1875 -0.375 C-3.64095726 -1.10258364 -2.41295078 -1.08166759 0 0 Z " fill="#144AB7" transform="translate(72,48)"/>
<path d="M0 0 C0.556875 0.9590625 0.556875 0.9590625 1.125 1.9375 C3.58052793 4.63858072 5.44578805 4.68407005 9 5 C9.33 6.32 9.66 7.64 10 9 C9.01 8.34 8.02 7.68 7 7 C4.36 11.95 1.72 16.9 -1 22 C-2.04449911 18.86650268 -1.93423645 18.01031744 -1 15 C-0.34 15 0.32 15 1 15 C1 12.03 1 9.06 1 6 C0.34 6 -0.32 6 -1 6 C-1 6.66 -1 7.32 -1 8 C-1.99 8.33 -2.98 8.66 -4 9 C-2.80100302 5.9168649 -1.52299523 2.93720508 0 0 Z " fill="#0D49B4" transform="translate(53,72)"/>
<path d="M0 0 C0.66 0.33 1.32 0.66 2 1 C2 2.65 2 4.3 2 6 C0.35 6.33 -1.3 6.66 -3 7 C-3.33 7.99 -3.66 8.98 -4 10 C-7 9 -7 9 -9 8 C-9 9.65 -9 11.3 -9 13 C-9.99 12.67 -10.98 12.34 -12 12 C-11.91433603 9.087425 -11.42089045 7.43201976 -9.375 5.33203125 C-7.61608625 3.83908228 -5.83686981 2.39563738 -4 1 C-4 1.66 -4 2.32 -4 3 C-2.68 2.01 -1.36 1.02 0 0 Z " fill="#0348D5" transform="translate(145,60)"/>
<path d="M0 0 C3.64780666 4.1689219 6 9.44803736 6 15 C6.66 15.33 7.32 15.66 8 16 C7.67 16.66 7.34 17.32 7 18 C5.0625 17.5 5.0625 17.5 3 16 C2.67676405 13.9959371 2.36466593 11.98536406 2.21484375 9.9609375 C1.96074825 7.64173858 1.09296203 6.0401958 0 4 C0 2.68 0 1.36 0 0 Z M-2 17 C-0.35 17 1.3 17 3 17 C3.66 19.31 4.32 21.62 5 24 C4.01 24.495 4.01 24.495 3 25 C2.34786708 27.02463255 2.34786708 27.02463255 2 29 C1.3291288 27.3767313 0.66342971 25.75132422 0 24.125 C-0.37125 23.22007812 -0.7425 22.31515625 -1.125 21.3828125 C-2 19 -2 19 -2 17 Z " fill="#0D49C1" transform="translate(173,116)"/>
<path d="M0 0 C0 3 0 3 -1.3125 4.46484375 C-2.43621087 5.44548958 -3.56120986 6.42466134 -4.6875 7.40234375 C-6.42318647 9.17052104 -6.42318647 9.17052104 -6 13 C-5.34 13.33 -4.68 13.66 -4 14 C-4.15404113 19.08335725 -7.02068432 21.35754718 -10.50390625 24.64453125 C-10.99761719 25.09183594 -11.49132812 25.53914063 -12 26 C-12 22.87099787 -11.57548683 21.62581138 -10 19 C-9.34 18.67 -8.68 18.34 -8 18 C-8.33 17.01 -8.66 16.02 -9 15 C-8.67 14.34 -8.34 13.68 -8 13 C-9.32 12.67 -10.64 12.34 -12 12 C-8.04 8.04 -4.08 4.08 0 0 Z " fill="#0F45B6" transform="translate(140,59)"/>
<path d="M0 0 C4.52615993 3.67832017 8.39424999 7.41086363 12 12 C9.04590299 10.62845496 6.55991624 9.01136276 4 7 C3.22757731 8.83700789 3.22757731 8.83700789 3 11 C4.27056525 12.68732044 4.27056525 12.68732044 6 14 C6.66 14.66 7.32 15.32 8 16 C6.296875 16.77734375 6.296875 16.77734375 4 17 C1.640625 15.12890625 1.640625 15.12890625 -0.75 12.5625 C-1.54921875 11.71816406 -2.3484375 10.87382813 -3.171875 10.00390625 C-3.77515625 9.34261719 -4.3784375 8.68132812 -5 8 C-4.01 7.67 -3.02 7.34 -2 7 C-2 7.66 -2 8.32 -2 9 C-0.68 8.34 0.64 7.68 2 7 C2 3.89448334 1.4606285 2.64738916 0 0 Z " fill="#0A49B6" transform="translate(82,88)"/>
<path d="M0 0 C0.33 0 0.66 0 1 0 C0.67 2.31 0.34 4.62 0 7 C0.99 7.33 1.98 7.66 3 8 C3.33 8.33 3.66 8.66 4 9 C4.66 9 5.32 9 6 9 C6.33 8.34 6.66 7.68 7 7 C6.27595226 11.04704581 5.16553713 14.89070402 3.9375 18.8125 C3.57527344 19.97394531 3.21304688 21.13539062 2.83984375 22.33203125 C2.56269531 23.21246094 2.28554687 24.09289062 2 25 C1.01 24.67 0.02 24.34 -1 24 C-0.34 23.67 0.32 23.34 1 23 C1 22.0925 1 21.185 1 20.25 C1 17.83333333 1 15.41666667 1 13 C0.3498008 10.78265886 0.3498008 10.78265886 -1 9 C-3.05000871 8.19471111 -3.05000871 8.19471111 -5 8 C-4.67 7.34 -4.34 6.68 -4 6 C-3.67 6.33 -3.34 6.66 -3 7 C-2.01 4.69 -1.02 2.38 0 0 Z " fill="#0F46B4" transform="translate(97,65)"/>
<path d="M0 0 C0 8.91 0 17.82 0 27 C-0.66 26.67 -1.32 26.34 -2 26 C-1.98839844 25.03578125 -1.97679687 24.0715625 -1.96484375 23.078125 C-1.95582031 21.81484375 -1.94679687 20.5515625 -1.9375 19.25 C-1.92589844 17.99703125 -1.91429687 16.7440625 -1.90234375 15.453125 C-1.97978973 12.71463499 -2.17219185 10.58119707 -3 8 C-5.31 8.66 -7.62 9.32 -10 10 C-9.06409496 8.8944811 -8.12620142 7.79064547 -7.1875 6.6875 C-6.66542969 6.07261719 -6.14335937 5.45773438 -5.60546875 4.82421875 C-1.35974304 0 -1.35974304 0 0 0 Z " fill="#074CBC" transform="translate(188,14)"/>
<path d="M0 0 C0.99 0 1.98 0 3 0 C3.33 0.99 3.66 1.98 4 3 C3.67 3.33 3.34 3.66 3 4 C2.87718048 5.62579218 2.82217496 7.25677004 2.79467773 8.88696289 C2.77473251 9.92796646 2.75478729 10.96897003 2.73423767 12.04151917 C2.71752518 13.1737944 2.70081268 14.30606964 2.68359375 15.47265625 C2.66281265 16.62543564 2.64203156 17.77821503 2.62062073 18.96592712 C2.55500036 22.66472157 2.49618245 26.36358959 2.4375 30.0625 C2.39432665 32.56315879 2.35071276 35.06381001 2.30664062 37.56445312 C2.19930632 43.70955662 2.09756357 49.85473404 2 56 C1.67 56 1.34 56 1 56 C0.67 37.52 0.34 19.04 0 0 Z " fill="#235294" transform="translate(5,12)"/>
<path d="M0 0 C3.03685633 0.32537746 3.95633666 0.95236726 6.0625 3.25 C7.84110625 5.77447338 9.46833495 8.31958616 11 11 C10.01 11.99 9.02 12.98 8 14 C7.67 13.67 7.34 13.34 7 13 C6.34 12.67 5.68 12.34 5 12 C5 11.01 5 10.02 5 9 C4.01 8.67 3.02 8.34 2 8 C0.5522078 5.10441559 0 3.25811062 0 0 Z " fill="#0248D7" transform="translate(75,58)"/>
<path d="M0 0 C0.33 1.32 0.66 2.64 1 4 C-0.65 4.33 -2.3 4.66 -4 5 C-4.33 5.99 -4.66 6.98 -5 8 C-6.32 8 -7.64 8 -9 8 C-9.33 9.65 -9.66 11.3 -10 13 C-10.99 12.67 -11.98 12.34 -13 12 C-12.7018576 10.65835921 -12.35858516 9.32676508 -12 8 C-11.855625 7.154375 -11.71125 6.30875 -11.5625 5.4375 C-8.96946841 1.39237071 -4.50320368 1.02194475 0 0 Z " fill="#004AD6" transform="translate(162,45)"/>
<path d="M0 0 C0.33 0.66 0.66 1.32 1 2 C0.34 3.65 -0.32 5.3 -1 7 C2.96 10.96 6.92 14.92 11 19 C10.01 19.33 9.02 19.66 8 20 C7.5875 19.54625 7.175 19.0925 6.75 18.625 C5.08564502 16.9077669 5.08564502 16.9077669 2.9375 16.0625 C0.5236419 14.73877136 0.17312505 13.42445844 -1 11 C-1.99 10.67 -2.98 10.34 -4 10 C-4.66 9.67 -5.32 9.34 -6 9 C-5.01 8.67 -4.02 8.34 -3 8 C-3 6.35 -3 4.7 -3 3 C-2.34 3 -1.68 3 -1 3 C-0.67 2.01 -0.34 1.02 0 0 Z " fill="#1045B9" transform="translate(67,64)"/>
<path d="M0 0 C0 0.99 0 1.98 0 3 C-0.804375 3.763125 -1.60875 4.52625 -2.4375 5.3125 C-5.38301208 8.4016956 -5.36597795 9.92414398 -6 14 C-7.75 15.4375 -7.75 15.4375 -10 16 C-12.75 15.625 -12.75 15.625 -15 15 C-15.33 13.68 -15.66 12.36 -16 11 C-15.40219727 11.21712646 -14.80439453 11.43425293 -14.18847656 11.65795898 C-13.10518066 11.82726929 -13.10518066 11.82726929 -12 12 C-9.70983534 10.08065216 -7.76718302 8.23652142 -5.75 6.0625 C-5.19570312 5.48564453 -4.64140625 4.90878906 -4.0703125 4.31445312 C-2.70205855 2.88722271 -1.3494962 1.44497942 0 0 Z " fill="#0F46BC" transform="translate(110,89)"/>
<path d="M0 0 C0 5.2238915 -4.49029462 8.41243426 -8 12 C-9.99624108 13.83669021 -12.0306399 15.60768553 -14.1015625 17.359375 C-16.8857436 19.76545743 -19.43114072 22.36691924 -22 25 C-22.66 24.67 -23.32 24.34 -24 24 C-16.08 16.08 -8.16 8.16 0 0 Z " fill="#1F4E95" transform="translate(184,15)"/>
<path d="M0 0 C0.99 0.33 1.98 0.66 3 1 C3.6875 3.0625 3.6875 3.0625 4 5 C3.01 5.33 2.02 5.66 1 6 C0.26676204 8.01508358 0.26676204 8.01508358 0 10 C-1.32 10.33 -2.64 10.66 -4 11 C-4 12.32 -4 13.64 -4 15 C-4.66 15 -5.32 15 -6 15 C-5.34 12.36 -4.68 9.72 -4 7 C-3.01 7 -2.02 7 -1 7 C-0.67 4.69 -0.34 2.38 0 0 Z " fill="#1B51B6" transform="translate(112,29)"/>
<path d="M0 0 C4 0 4 0 5.75 1.5 C6.1625 1.995 6.575 2.49 7 3 C6.67 3.66 6.34 4.32 6 5 C6.99 5.33 7.98 5.66 9 6 C9 6.66 9 7.32 9 8 C9.66 8 10.32 8 11 8 C11.33 9.32 11.66 10.64 12 12 C8.87142986 10.6118265 6.71810826 8.98898122 4.3125 6.5625 C3.71050781 5.96566406 3.10851563 5.36882813 2.48828125 4.75390625 C1 3 1 3 0 0 Z M11 5 C11 8 11 8 11 8 Z " fill="#0345BC" transform="translate(35,52)"/>
<path d="M0 0 C0 0.99 0 1.98 0 3 C-2.64 3.33 -5.28 3.66 -8 4 C-8.12375 5.134375 -8.2475 6.26875 -8.375 7.4375 C-8.58125 8.613125 -8.7875 9.78875 -9 11 C-9.99 11.495 -9.99 11.495 -11 12 C-10.53640488 7.27132978 -9.9200845 3.81857204 -7 0 C-3.86650268 -1.04449911 -3.01031744 -0.93423645 0 0 Z " fill="#3464AF" transform="translate(129,2)"/>
<path d="M0 0 C4.97853147 3.62075016 10.2095767 8.41915339 13 14 C8.06789169 12.76697292 5.78225429 11.28039122 3 7 C3 6.34 3 5.68 3 5 C2.01 4.67 1.02 4.34 0 4 C0 2.68 0 1.36 0 0 Z " fill="#0C45B7" transform="translate(79,57)"/>
<path d="M0 0 C0.33 0 0.66 0 1 0 C1 2.31 1 4.62 1 7 C0.34 7 -0.32 7 -1 7 C-1.66 9.64 -2.32 12.28 -3 15 C-3.66 15 -4.32 15 -5 15 C-5.33 17.31 -5.66 19.62 -6 22 C-6.66 22 -7.32 22 -8 22 C-4.15 4.15 -4.15 4.15 0 0 Z " fill="#4C71B9" transform="translate(117,14)"/>
<path d="M0 0 C0 3 0 3 -1.56640625 4.68359375 C-2.89731658 5.85302377 -4.23065632 7.01969469 -5.56640625 8.18359375 C-6.03949219 8.78300781 -6.51257813 9.38242188 -7 10 C-6.67 11.32 -6.34 12.64 -6 14 C-8.97 14.66 -11.94 15.32 -15 16 C-10.30233025 10.33870569 -5.25276628 5.14771096 0 0 Z " fill="#1246B6" transform="translate(126,73)"/>
<path d="M0 0 C0.33 0.99 0.66 1.98 1 3 C-0.4375 5.6875 -0.4375 5.6875 -2 8 C-1.34 8 -0.68 8 0 8 C0 8.66 0 9.32 0 10 C-1.32 10 -2.64 10 -4 10 C-4.0825 10.7425 -4.165 11.485 -4.25 12.25 C-5.1396946 15.51221354 -6.48503749 16.80954878 -9 19 C-9 15.36541336 -7.96060371 13.7743083 -6.1875 10.625 C-5.66542969 9.68914062 -5.14335937 8.75328125 -4.60546875 7.7890625 C-3.10003567 5.17378459 -1.56285877 2.58129826 0 0 Z " fill="#1446A7" transform="translate(28,115)"/>
<path d="M0 0 C3.68069887 1.53643852 5.98775204 3.78150945 8.75 6.625 C9.54921875 7.44226563 10.3484375 8.25953125 11.171875 9.1015625 C12.07679687 10.04128906 12.07679687 10.04128906 13 11 C10 11 10 11 7.6875 9.125 C4.84356133 6.8763043 2.46514712 5.9670178 -1 5 C-0.67 3.35 -0.34 1.7 0 0 Z " fill="#0945AD" transform="translate(8,15)"/>
<path d="M0 0 C2.475 0.99 2.475 0.99 5 2 C5 2.66 5 3.32 5 4 C5.66 4.33 6.32 4.66 7 5 C7 5.99 7 6.98 7 8 C6.34 8 5.68 8 5 8 C5.33 10.31 5.66 12.62 6 15 C3.08691178 13.54345589 2.94547684 11.64612352 1.875 8.625 C1.52179688 7.64789063 1.16859375 6.67078125 0.8046875 5.6640625 C0 3 0 3 0 0 Z " fill="#064ABF" transform="translate(151,83)"/>
<path d="M0 0 C0.33 0.66 0.66 1.32 1 2 C1.99 2.33 2.98 2.66 4 3 C4.33 3.99 4.66 4.98 5 6 C5.33 6.66 5.66 7.32 6 8 C6.66 8 7.32 8 8 8 C8 8.66 8 9.32 8 10 C5.087425 9.91433603 3.43201976 9.42089045 1.33203125 7.375 C-0.16091772 5.61608625 -1.60436262 3.83686981 -3 2 C-2.01 1.34 -1.02 0.68 0 0 Z " fill="#0845C4" transform="translate(90,103)"/>
<path d="M0 0 C1.32 0.33 2.64 0.66 4 1 C1.03 3.97 -1.94 6.94 -5 10 C-5.99 8.68 -6.98 7.36 -8 6 C-5.64046906 3.64046906 -4.22104383 3.50858587 -1 3 C-0.67 2.01 -0.34 1.02 0 0 Z " fill="#0944B9" transform="translate(123,85)"/>
<path d="M0 0 C0.5775 0.28875 1.155 0.5775 1.75 0.875 C2.08 1.865 2.41 2.855 2.75 3.875 C1.656875 4.1225 0.56375 4.37 -0.5625 4.625 C-4.30908409 5.89502851 -5.35595266 6.53256352 -7.25 9.875 C-7.5625 6.5625 -7.5625 6.5625 -7.25 2.875 C-4.76000859 0.6616743 -3.35065984 -0.18614777 0 0 Z " fill="#245ABA" transform="translate(70.25,47.125)"/>
<path d="M0 0 C1.32 0.66 2.64 1.32 4 2 C2.52386015 3.50297876 1.04400843 5.00231285 -0.4375 6.5 C-1.26121094 7.3353125 -2.08492187 8.170625 -2.93359375 9.03125 C-5 11 -5 11 -6 11 C-6 9.02 -6 7.04 -6 5 C-4.68 5 -3.36 5 -2 5 C-1.855625 4.360625 -1.71125 3.72125 -1.5625 3.0625 C-1 1 -1 1 0 0 Z " fill="#0C43B8" transform="translate(159,48)"/>
<path d="M0 0 C3.03061766 2.02041177 3.72239767 2.75685563 5 6 C5 6.99 5 7.98 5 9 C3.68 9 2.36 9 1 9 C0.67 9.33 0.34 9.66 0 10 C-0.66 9.67 -1.32 9.34 -2 9 C-2.625 6.9375 -2.625 6.9375 -3 5 C-2.01 4.67 -1.02 4.34 0 4 C0 2.68 0 1.36 0 0 Z " fill="#0545D4" transform="translate(24,32)"/>
<path d="M0 0 C1.2065625 0.0309375 1.2065625 0.0309375 2.4375 0.0625 C1.89026317 3.43712715 1.3826 5.14485 -0.5625 8.0625 C-1.2225 8.0625 -1.8825 8.0625 -2.5625 8.0625 C-2.94313221 5.7364143 -3.27519945 3.40194736 -3.5625 1.0625 C-2.5625 0.0625 -2.5625 0.0625 0 0 Z " fill="#0248D1" transform="translate(31.5625,118.9375)"/>
<path d="M0 0 C2.57833439 2.57833439 3.3761471 5.10325781 4.6875 8.5 C5.14511719 9.6653125 5.60273438 10.830625 6.07421875 12.03125 C7 15 7 15 6 17 C1.929457 11.16555503 -0.33491517 7.20067611 0 0 Z " fill="#1247AF" transform="translate(152,63)"/>
<path d="M0 0 C1 2 1 2 0.44140625 4.1640625 C0.15136719 4.97617188 -0.13867188 5.78828125 -0.4375 6.625 C-0.72496094 7.44226563 -1.01242188 8.25953125 -1.30859375 9.1015625 C-1.65083984 10.04128906 -1.65083984 10.04128906 -2 11 C-2.66 11 -3.32 11 -4 11 C-4 11.66 -4 12.32 -4 13 C-4.99 13.33 -5.98 13.66 -7 14 C-5.23570801 9.02790438 -2.6060834 4.56561939 0 0 Z " fill="#1649A6" transform="translate(42,91)"/>
<path d="M0 0 C0.99 0.33 1.98 0.66 3 1 C2.34 1 1.68 1 1 1 C1.33 2.98 1.66 4.96 2 7 C0.02 7.99 0.02 7.99 -2 9 C-2.6875 6.1875 -2.6875 6.1875 -3 3 C-1.5625 1.125 -1.5625 1.125 0 0 Z " fill="#104BC3" transform="translate(118,20)"/>
<path d="M0 0 C0.99 0.66 1.98 1.32 3 2 C0.03 6.95 0.03 6.95 -3 12 C-3.99 10.68 -4.98 9.36 -6 8 C-4.68 8 -3.36 8 -2 8 C-1.855625 6.865625 -1.71125 5.73125 -1.5625 4.5625 C-1 1 -1 1 0 0 Z " fill="#0847AA" transform="translate(25,133)"/>
<path d="M0 0 C2.32601085 2.85464968 3.9610176 5.45014348 5 9 C4.625 11.8125 4.625 11.8125 4 14 C3.67 14 3.34 14 3 14 C2.566875 12.3603125 2.566875 12.3603125 2.125 10.6875 C1.18106796 6.95986155 1.18106796 6.95986155 -1 4 C-0.625 1.8125 -0.625 1.8125 0 0 Z " fill="#0B469A" transform="translate(136,23)"/>
<path d="M0 0 C1.0625 1.875 1.0625 1.875 2 4 C1.67 4.66 1.34 5.32 1 6 C0.34 6 -0.32 6 -1 6 C-1 6.66 -1 7.32 -1 8 C-1.66 8 -2.32 8 -3 8 C-3.33 8.66 -3.66 9.32 -4 10 C-4.33 9.01 -4.66 8.02 -5 7 C-5.66 6.67 -6.32 6.34 -7 6 C-6.67 5.34 -6.34 4.68 -6 4 C-3.03 4.495 -3.03 4.495 0 5 C0 3.35 0 1.7 0 0 Z " fill="#0747C7" transform="translate(104,66)"/>
<path d="M0 0 C3.35433109 0.94933899 6.69246505 1.89748835 10 3 C9.34 4.32 8.68 5.64 8 7 C6.68 6.34 5.36 5.68 4 5 C4 4.34 4 3.68 4 3 C2.68 2.34 1.36 1.68 0 1 C0 0.67 0 0.34 0 0 Z " fill="#0738CB" transform="translate(46,64)"/>
<path d="M0 0 C0.66 0 1.32 0 2 0 C2.33 0.99 2.66 1.98 3 3 C3.66 3.33 4.32 3.66 5 4 C5 6.64 5 9.28 5 12 C3.20931427 9.3139714 2.33944209 7.3373411 1.375 4.3125 C1.11460937 3.50425781 0.85421875 2.69601563 0.5859375 1.86328125 C0.39257812 1.24839844 0.19921875 0.63351563 0 0 Z " fill="#1B45B7" transform="translate(171,133)"/>
<path d="M0 0 C0.99 0 1.98 0 3 0 C2.67 2.64 2.34 5.28 2 8 C0.02 6.35 -1.96 4.7 -4 3 C-2.68 2.34 -1.36 1.68 0 1 C0 0.67 0 0.34 0 0 Z " fill="#1048BF" transform="translate(90,75)"/>
<path d="M0 0 C2 1.8125 2 1.8125 4 4 C4 4.99 4 5.98 4 7 C3.01 7 2.02 7 1 7 C0.67 7.99 0.34 8.98 0 10 C0 6.7 0 3.4 0 0 Z " fill="#1148CB" transform="translate(132,23)"/>
<path d="M0 0 C2.34914492 2.34914492 2.73140357 3.95679446 3.625 7.125 C3.88539063 8.03507813 4.14578125 8.94515625 4.4140625 9.8828125 C4.70410156 10.93082031 4.70410156 10.93082031 5 12 C3.046875 11.3203125 3.046875 11.3203125 1 10 C0.390625 7.6171875 0.390625 7.6171875 0.25 4.875 C0.19328125 3.96492187 0.1365625 3.05484375 0.078125 2.1171875 C0.05234375 1.41851562 0.0265625 0.71984375 0 0 Z " fill="#114097" transform="translate(129,5)"/>
<path d="M0 0 C2.6855594 2.6855594 3.06049974 5.37621328 4 9 C2.68 8.34 1.36 7.68 0 7 C0 4.69 0 2.38 0 0 Z M-2 8 C-1.34 8 -0.68 8 0 8 C-0.33 8.99 -0.66 9.98 -1 11 C-1.33 10.01 -1.66 9.02 -2 8 Z " fill="#1447BD" transform="translate(169,106)"/>
<path d="M0 0 C0.99 0 1.98 0 3 0 C3 1.98 3 3.96 3 6 C2.67 5.34 2.34 4.68 2 4 C1.34 4 0.68 4 0 4 C0 4.99 0 5.98 0 7 C-0.99 6.67 -1.98 6.34 -3 6 C-2.01 4.02 -1.02 2.04 0 0 Z " fill="#0E4BC2" transform="translate(113,35)"/>
<path d="M0 0 C-0.875 4.75 -0.875 4.75 -2 7 C-2.99 6.67 -3.98 6.34 -5 6 C-4.625 3.5625 -4.625 3.5625 -4 1 C-2 0 -2 0 0 0 Z " fill="#1645D7" transform="translate(185,21)"/>
<path d="M0 0 C1.32 0 2.64 0 4 0 C4.33 2.97 4.66 5.94 5 9 C4.34 7.68 3.68 6.36 3 5 C2.01 4.67 1.02 4.34 0 4 C0 2.68 0 1.36 0 0 Z " fill="#004ABF" transform="translate(125,5)"/>
<path d="M0 0 C3.465 1.98 3.465 1.98 7 4 C3.67465243 5.10844919 1.37817425 4.84454356 -2 4 C-1.34 2.68 -0.68 1.36 0 0 Z " fill="#0B45C6" transform="translate(16,24)"/>
<path d="M0 0 C2.09350689 3.4019487 2.17942163 6.05272412 2 10 C1.01 9.67 0.02 9.34 -1 9 C-1.80967438 6.08517222 -2.21845993 4.53886783 -1.0625 1.6875 C-0.711875 1.130625 -0.36125 0.57375 0 0 Z " fill="#0149D0" transform="translate(185,22)"/>
<path d="M0 0 C1.485 0.99 1.485 0.99 3 2 C3 3.32 3 4.64 3 6 C3.99 6 4.98 6 6 6 C6 6.99 6 7.98 6 9 C5.01 9.33 4.02 9.66 3 10 C2.01 6.7 1.02 3.4 0 0 Z " fill="#1147B4" transform="translate(157,98)"/>
<path d="M0 0 C0.66 0.99 1.32 1.98 2 3 C1.125 6.1875 1.125 6.1875 0 9 C-0.66 9 -1.32 9 -2 9 C-2.20140476 5.37471432 -1.85776765 3.13498292 0 0 Z " fill="#0043CF" transform="translate(100,61)"/>
<path d="M0 0 C2.1385485 2.1385485 2.42655063 3.13275314 3 6 C2.34 6 1.68 6 1 6 C0.67 6.99 0.34 7.98 0 9 C-0.99 8.67 -1.98 8.34 -3 8 C-2.01 5.36 -1.02 2.72 0 0 Z " fill="#0044D4" transform="translate(104,62)"/>
<path d="M0 0 C1.32 0 2.64 0 4 0 C3.43628586 3.26954202 2.50037734 4.82575883 0 7 C-0.33 6.01 -0.66 5.02 -1 4 C-0.34 4 0.32 4 1 4 C0.67 2.68 0.34 1.36 0 0 Z " fill="#0A46B2" transform="translate(37,110)"/>
<path d="M0 0 C0.59732819 2.76264289 1 5.16032769 1 8 C-0.98 5.69 -2.96 3.38 -5 1 C-2 0 -2 0 0 0 Z " fill="#0356AB" transform="translate(75,87)"/>
<path d="M0 0 C0.8125 1.625 0.8125 1.625 1 4 C-0.46818136 6.24609835 -2.15852858 8.02378677 -4 10 C-4 5.75354935 -2.18249194 3.61475228 0 0 Z " fill="#1744A5" transform="translate(48,81)"/>
<path d="M0 0 C0.99 0.33 1.98 0.66 3 1 C3.6875 3.0625 3.6875 3.0625 4 5 C2.35 5 0.7 5 -1 5 C-0.67 3.35 -0.34 1.7 0 0 Z " fill="#1347CC" transform="translate(173,30)"/>
<path d="M0 0 C0.33 0.66 0.66 1.32 1 2 C0.06694014 4.71435596 -0.62673377 5.78043163 -3.125 7.25 C-3.74375 7.4975 -4.3625 7.745 -5 8 C-3.375 2.25 -3.375 2.25 0 0 Z " fill="#033EAA" transform="translate(23,126)"/>
<path d="M0 0 C0.8125 1.625 0.8125 1.625 1 4 C-0.46818136 6.24609835 -2.15852858 8.02378677 -4 10 C-4 5.75354935 -2.18249194 3.61475228 0 0 Z " fill="#1C45A3" transform="translate(34,105)"/>
<path d="M0 0 C0.99 0.33 1.98 0.66 3 1 C3 2.65 3 4.3 3 6 C3.66 6.33 4.32 6.66 5 7 C4.01 8.485 4.01 8.485 3 10 C0 3.375 0 3.375 0 0 Z " fill="#0F4CAB" transform="translate(151,83)"/>
<path d="M0 0 C1.65 0 3.3 0 5 0 C4.34 1.32 3.68 2.64 3 4 C1.68 3.67 0.36 3.34 -1 3 C-0.67 2.01 -0.34 1.02 0 0 Z " fill="#0248C8" transform="translate(127,72)"/>
<path d="M0 0 C1 2 1 2 0.44140625 3.9453125 C0.15136719 4.66460937 -0.13867188 5.38390625 -0.4375 6.125 C-0.72496094 6.84945312 -1.01242188 7.57390625 -1.30859375 8.3203125 C-1.53675781 8.87460938 -1.76492187 9.42890625 -2 10 C-2.33 10 -2.66 10 -3 10 C-3.36923077 4.58461538 -3.36923077 4.58461538 -1.5 1.625 C-1.005 1.08875 -0.51 0.5525 0 0 Z " fill="#114AB1" transform="translate(109,57)"/>
<path d="M0 0 C0.93423645 3.01031744 1.04449911 3.86650268 0 7 C-0.99 6.67 -1.98 6.34 -3 6 C-2.42655063 3.13275314 -2.1385485 2.1385485 0 0 Z " fill="#0647DE" transform="translate(152,51)"/>
<path d="M0 0 C1.98 0.495 1.98 0.495 4 1 C2.68 3.31 1.36 5.62 0 8 C-1.09658936 4.71023192 -0.79953138 3.28696233 0 0 Z " fill="#8296CF" transform="translate(64,49)"/>
<path d="M0 0 C0.99 0.33 1.98 0.66 3 1 C3.875 2.875 3.875 2.875 4 5 C2.5625 6.75 2.5625 6.75 1 8 C0.67 5.36 0.34 2.72 0 0 Z " fill="#3C68C2" transform="translate(119,22)"/>
<path d="M0 0 C0.99 0.33 1.98 0.66 3 1 C2.67 2.32 2.34 3.64 2 5 C0.68 5.33 -0.64 5.66 -2 6 C-2 5.01 -2 4.02 -2 3 C-1.34 3 -0.68 3 0 3 C0 2.01 0 1.02 0 0 Z " fill="#1047DD" transform="translate(20,134)"/>
<path d="M0 0 C2 1.3125 2 1.3125 4 3 C4 3.99 4 4.98 4 6 C2.68 5.67 1.36 5.34 0 5 C0 3.35 0 1.7 0 0 Z " fill="#0E46C3" transform="translate(78,84)"/>
<path d="M0 0 C0.66 0.33 1.32 0.66 2 1 C1.74438677 3.3431213 1.40729228 5.67843403 1 8 C0.01 8.495 0.01 8.495 -1 9 C-0.67 6.03 -0.34 3.06 0 0 Z " fill="#0D46DA" transform="translate(155,77)"/>
<path d="M0 0 C2.55192629 1.27596315 2.99500868 2.37156116 4 5 C3.67 5.99 3.34 6.98 3 8 C1.5 6.8125 1.5 6.8125 0 5 C-0.1875 2.3125 -0.1875 2.3125 0 0 Z " fill="#0D45BE" transform="translate(82,69)"/>
<path d="" fill="#000000" transform="translate(0,0)"/>
</svg>
